<!--

    Copyright (c) 2024 Lucas O. S.

    Permission is hereby granted, free of charge, to any person obtaining a copy
    of this logo and associated documentation files (the "Logo"), to use the Logo
    solely for personal and non-commercial purposes. Any public or commercial use
    of the Logo is strictly prohibited.

    The above copyright notice and this permission notice shall be included in all
    copies or substantial portions of the Logo.

    THE LOGO IS PROVIDED "AS IS", WITHOUT WARRANTY OF ANY KIND, EXPRESS OR
    IMPLIED, INCLUDING BUT NOT LIMITED TO THE WARRANTIES OF MERCHANTABILITY,
    FITNESS FOR A PARTICULAR PURPOSE AND NONINFRINGEMENT. IN NO EVENT SHALL THE
    AUTHORS OR COPYRIGHT HOLDERS BE LIABLE FOR ANY CLAIM, DAMAGES OR OTHER
    LIABILITY, WHETHER IN AN ACTION OF CONTRACT, TORT OR OTHERWISE, ARISING FROM,
    OUT OF OR IN CONNECTION WITH THE LOGO OR THE USE OR OTHER DEALINGS IN THE
    LOGO.

-->
<svg width="500" height="500" viewBox="0 0 500 500" fill="none" xmlns="http://www.w3.org/2000/svg">
<path fill-rule="evenodd" clip-rule="evenodd" d="M227.614 386.915C186.793 384.934 158.325 381.26 126.599 373.876C76.038 362.11 36.831 343.369 17.0218 321.5C11.9576 315.909 8.61334 311.488 6.61974 307.748C4.53121 303.829 2.44763 298.516 1.4823 294.646C1.07615 293.018 -0.278402 289.418 0.0511744 283.544C0.380751 277.67 1.4823 275.141 1.81122 274.045C5.5295 261.664 13.4528 250.581 26.1517 239.998C46.184 223.304 79.5405 208.16 117.206 198.658C124.343 196.858 126.046 196.647 127.093 197.436C128.124 198.212 128.185 199.819 127.237 201.204C126.836 201.791 123.999 203.69 120.303 205.847C107.041 213.585 99.9907 220.558 97.2163 228.679C96.1728 231.734 96.1564 237.476 97.182 240.63C100.134 249.705 110.144 258.754 125.453 266.188C147.657 276.969 177.991 283.969 217.232 287.367C223.649 287.923 229.189 288.038 249.531 288.04C274.092 288.042 276.582 287.95 291.222 286.498C322.918 283.354 350.213 276.946 370.485 267.89C372.57 266.959 376.796 264.775 379.878 263.036C391.569 256.44 398.5 249.894 401.732 242.397C402.94 239.594 403.278 238.209 403.278 234.419V234.419C403.169 231.788 402.585 229.198 401.556 226.775L401.527 226.708C400.428 224.155 399.448 222.617 397.198 219.911C392.909 214.753 388.698 211.414 380.041 206.307C374.316 202.929 373.451 202.1 373.451 199.985C373.451 198.07 374.77 197.66 376.643 197.661C380.126 197.663 396.855 202.345 411.188 207.328C440.165 217.403 463.917 230.576 479.034 244.957C490.015 255.404 497.358 268.109 498.667 278.93C499.154 282.955 499.099 289.448 498.552 292.4C495.602 308.343 483.653 323.88 463.867 337.501C425.06 364.216 358.886 382.04 282.323 386.401C275.683 386.779 233.069 387.179 227.614 386.915Z" fill="white"/>
<path fill-rule="evenodd" clip-rule="evenodd" d="M344.134 252.132C357.33 247.956 366.935 236.278 366.935 222.437V222.437C366.935 160.892 314.567 111 249.967 111C185.368 111 133 160.892 133 222.437V222.437C133 236.055 142.364 247.605 155.327 251.778C172.895 257.434 193.634 261.457 217.724 263.897C224.152 264.548 229.702 264.683 250.081 264.685C274.686 264.687 277.181 264.579 291.847 262.878C311.09 260.646 328.714 257.011 344.134 252.132Z" fill="white"/>
</svg>